<svg xmlns="http://www.w3.org/2000/svg" xmlns:xlink="http://www.w3.org/1999/xlink" viewBox="0 0 562.1 622.94"><defs><style>.cls-1{fill:none;}.cls-2{fill:#fff;}.cls-3{clip-path:url(#clip-path);}.cls-4{fill:#adadad;}.cls-5{fill:#333;}</style><clipPath id="clip-path" transform="translate(0 0)"><rect class="cls-1" width="562.1" height="622.94"/></clipPath></defs><g id="图层_2" data-name="图层 2"><g id="图层_1-2" data-name="图层 1"><rect class="cls-2" width="562.1" height="622.94"/><g class="cls-3"><path class="cls-4" d="M163.39,47.52s-31.77,148-35.66,197c93.71-55.44,116.21-31.72,35.66-197Zm234.77,0s31.78,148,35.67,197c-93.72-55.44-116.22-31.72-35.67-197ZM278.27,329.9h1.12v-.06a8.08,8.08,0,0,1-1.12.06Z" transform="translate(0 0)"/><path class="cls-4" d="M119.62,318.33a74.69,74.69,0,0,1,149.38,0,79.38,79.38,0,0,1-.86,11.41c4,0,12,.05,13.92.1l.16-167.92s-304,43.72-238.08,322.89c0,0,43.76-85.45,86.52-127.46a73.51,73.51,0,0,1-11-39ZM283.34,329.9h-1.12v-.06a7.66,7.66,0,0,0,1.12.06Z" transform="translate(0 0)"/><path class="cls-4" d="M441.93,318.33a74.69,74.69,0,1,0-149.37,0,80.84,80.84,0,0,0,.85,11.41c-4,0-12,.05-13.91.1l-.16-167.92s304,43.72,238.07,322.89c0,0-43.76-85.45-86.52-127.46a73.51,73.51,0,0,0,11-39Z" transform="translate(0 0)"/><path class="cls-5" d="M280.78,622.94c-22.23,0-100-2.46-169-33.64C38.65,556.19,0,501.55,0,431.24c0-48.67,10.61-94.79,31.61-137a19.82,19.82,0,0,1,35.51,17.6C48.89,348.56,39.66,388.7,39.66,431.24c0,54.32,29.8,95.37,88.49,121.91,61.74,27.94,132.48,30.12,152.68,30.12s90.95-2.18,152.68-30.12C492.25,526.55,522,485.56,522,431.24c0-45-12.26-90.47-35.51-131.46a19.79,19.79,0,1,1,34.44-19.51c26.55,47,40.62,99.15,40.62,151,0,70.26-38.64,124.9-111.78,158-68.93,31.23-146.77,33.69-169,33.69ZM212.49,181.75l-12.85-37.47a248.55,248.55,0,0,1,158.86-1.12l-12.31,37.63a209.1,209.1,0,0,0-133.7,1Z" transform="translate(0 0)"/><path class="cls-5" d="M39,349.73a23,23,0,0,1-3.3-.27,19.83,19.83,0,0,1-16.26-22.82,1135.44,1135.44,0,0,1,33.37-136.2c30.81-98,67.81-161,110-187.43A19.67,19.67,0,0,1,178.74.77a20,20,0,0,1,12.37,10.29c35.35,71.81,51.44,138.07,52.08,140.84a19.81,19.81,0,1,1-38.54,9.22,722.28,722.28,0,0,0-38.54-110C139,78.81,113.23,130.36,90.63,202.33A1112.39,1112.39,0,0,0,58.53,333.2,19.86,19.86,0,0,1,39,349.73Zm483.67,0a19.82,19.82,0,0,1-19.51-16.53,1115.25,1115.25,0,0,0-32.25-131.3c-22.55-71.75-48.3-123.14-75.27-150.75a723.07,723.07,0,0,0-38.55,110,19.81,19.81,0,0,1-38.54-9.22c.64-2.77,16.74-69,52.08-140.84A19.73,19.73,0,0,1,383,.77,19.93,19.93,0,0,1,399,3c42.11,26.39,79.11,89.45,109.93,187.43a1118.59,1118.59,0,0,1,33.36,136.2A19.79,19.79,0,0,1,526,349.46a22.51,22.51,0,0,1-3.31.27ZM293.47,406.5H268.62a20.81,20.81,0,0,0-18,31.24L263,450.54c8.9,8.53,26.76,8.53,36.08,0l12.42-12.8a20.84,20.84,0,0,0-18.06-31.24Zm-99-14.5a19.77,19.77,0,0,1-19.78-19.77V327.34a19.78,19.78,0,0,1,39.56,0v44.89A19.77,19.77,0,0,1,194.52,392ZM367,392a19.77,19.77,0,0,1-19.78-19.77V327.34a19.78,19.78,0,0,1,39.56,0v44.89A19.8,19.8,0,0,1,367,392Z" transform="translate(0 0)"/></g><path class="cls-5" d="M249.38,504.54H249c-24.74-.32-39.93-35.56-41.59-39.56a9.89,9.89,0,0,1,18.29-7.51c4.53,11,15.19,27.24,23.56,27.29h.06c6.39,0,14.71-10.29,22.33-27.56a9.91,9.91,0,0,1,18.13,8c-11.63,26.44-24.85,39.34-40.41,39.34Z" transform="translate(0 0)"/><path class="cls-5" d="M312.17,504.54c-15.51,0-28.73-12.85-40.46-39.34a9.91,9.91,0,0,1,18.13-8c7.62,17.27,16,27.56,22.33,27.56h.06c8.74-.11,19.67-17.86,23.56-27.29A9.89,9.89,0,0,1,354.08,465c-1.66,4-16.85,39.24-41.59,39.56Z" transform="translate(0 0)"/></g></g></svg>